<svg width="24" height="25" viewBox="0 0 551 500" fill="none" xmlns="http://www.w3.org/2000/svg">
<g filter="url(#filter0_d_2_6)">
<path d="M210.857 206.857C210.857 90.5007 236.714 0 236.714 0C236.714 0 159.143 12.9279 81.5714 142.215C4 271.502 4 362 4 362H236.714C236.714 362 210.857 323.215 210.857 206.857Z" fill="#FF483D"/>
<path d="M314.286 129.286V362H547L314.286 129.286Z" fill="#FF483D"/>
<path d="M288.429 387.857V0H262.571V387.857H6.58639H4C4 444.743 50.5429 491.286 107.429 491.286H443.571C500.457 491.286 547 444.743 547 387.857H544.415H288.429Z" fill="#FF483D"/>
</g>
<defs>
<filter id="filter0_d_2_6" x="0" y="0" width="551" height="499.286" filterUnits="userSpaceOnUse" color-interpolation-filters="sRGB">
<feFlood flood-opacity="0" result="BackgroundImageFix"/>
<feColorMatrix in="SourceAlpha" type="matrix" values="0 0 0 0 0 0 0 0 0 0 0 0 0 0 0 0 0 0 127 0" result="hardAlpha"/>
<feOffset dy="4"/>
<feGaussianBlur stdDeviation="2"/>
<feComposite in2="hardAlpha" operator="out"/>
<feColorMatrix type="matrix" values="0 0 0 0 0 0 0 0 0 0 0 0 0 0 0 0 0 0 0.25 0"/>
<feBlend mode="normal" in2="BackgroundImageFix" result="effect1_dropShadow_2_6"/>
<feBlend mode="normal" in="SourceGraphic" in2="effect1_dropShadow_2_6" result="shape"/>
</filter>
</defs>
</svg>
